<?xml version="1.0" encoding="UTF-8" standalone="no"?>
<!-- Created with Inkscape (http://www.inkscape.org/) -->

<svg
   width="16"
   height="16"
   id="svg2"
   version="1.1"
   inkscape:version="1.1.1 (3bf5ae0d25, 2021-09-20, custom)"
   sodipodi:docname="kubernetes.svg"
   inkscape:export-filename="/home/thockin/src/kubernetes/new.png"
   inkscape:export-xdpi="460.95001"
   inkscape:export-ydpi="460.95001"
   xmlns:inkscape="http://www.inkscape.org/namespaces/inkscape"
   xmlns:sodipodi="http://sodipodi.sourceforge.net/DTD/sodipodi-0.dtd"
   xmlns="http://www.w3.org/2000/svg"
   xmlns:svg="http://www.w3.org/2000/svg"
   xmlns:rdf="http://www.w3.org/1999/02/22-rdf-syntax-ns#"
   xmlns:cc="http://creativecommons.org/ns#"
   xmlns:dc="http://purl.org/dc/elements/1.1/">
  <defs
     id="defs4" />
  <sodipodi:namedview
     id="base"
     pagecolor="#ffffff"
     bordercolor="#666666"
     borderopacity="1.0"
     inkscape:pageopacity="0.0"
     inkscape:pageshadow="2"
     inkscape:zoom="45.793675"
     inkscape:cx="2.1400335"
     inkscape:cy="8.0142072"
     inkscape:document-units="px"
     inkscape:current-layer="g3052"
     showgrid="false"
     inkscape:window-width="1337"
     inkscape:window-height="1055"
     inkscape:window-x="0"
     inkscape:window-y="21"
     inkscape:window-maximized="0"
     inkscape:snap-global="false"
     fit-margin-top="10"
     fit-margin-left="10"
     fit-margin-right="10"
     fit-margin-bottom="10"
     inkscape:pagecheckerboard="0"
     width="16px" />
  <metadata
     id="metadata7">
    <rdf:RDF>
      <cc:Work
         rdf:about="">
        <dc:format>image/svg+xml</dc:format>
        <dc:type
           rdf:resource="http://purl.org/dc/dcmitype/StillImage" />
      </cc:Work>
    </rdf:RDF>
  </metadata>
  <g
     inkscape:label="Layer 1"
     inkscape:groupmode="layer"
     id="layer1"
     transform="translate(-6.3260942,-174.7524)">
    <g
       id="g3052">
      <path
         style="fill:#326ce5;fill-opacity:1;stroke:#ffffff;stroke-width:0;stroke-miterlimit:4;stroke-dasharray:none;stroke-opacity:1"
         d="m 14.298981,175.47996 a 1.0110958,1.0028214 0 0 0 -0.387481,0.0981 l -5.2874676,2.52641 a 1.0110958,1.0028214 0 0 0 -0.5470727,0.68029 l -1.304454,5.67495 a 1.0110958,1.0028214 0 0 0 0.1372755,0.76888 1.0110958,1.0028214 0 0 0 0.05748,0.0798 l 3.6597728,4.55037 a 1.0110958,1.0028214 0 0 0 0.790517,0.37734 l 5.869029,-0.001 a 1.0110958,1.0028214 0 0 0 0.790517,-0.37667 l 3.658422,-4.55105 a 1.0110958,1.0028214 0 0 0 0.195431,-0.84867 l -1.306483,-5.67495 a 1.0110958,1.0028214 0 0 0 -0.547072,-0.68029 l -5.288145,-2.52494 a 1.0110958,1.0028214 0 0 0 -0.490269,-0.0981 z"
         id="path3055"
         inkscape:connector-curvature="0"
         inkscape:export-filename="new.png"
         inkscape:export-xdpi="250.55"
         inkscape:export-ydpi="250.55" />
      <path
         inkscape:connector-curvature="0"
         id="path3059"
         d="m 14.351374,177.41122 c -0.174781,1e-5 -0.316498,0.15744 -0.316477,0.35164 0,0.003 6.1e-4,0.006 6.84e-4,0.009 -2.69e-4,0.0264 -0.0015,0.0582 -6.84e-4,0.0812 0.0042,0.112 0.02858,0.19773 0.04328,0.30092 0.02662,0.22087 0.04893,0.40395 0.03516,0.57413 -0.01339,0.0642 -0.06065,0.12285 -0.102788,0.16364 l -0.0074,0.1339 c -0.189926,0.0157 -0.381122,0.0446 -0.572094,0.0879 -0.82175,0.18658 -1.529263,0.60986 -2.067921,1.18138 -0.03495,-0.0238 -0.0961,-0.0677 -0.114285,-0.0812 -0.0565,0.008 -0.113612,0.0251 -0.187993,-0.0182 -0.141628,-0.0953 -0.27062,-0.22693 -0.426703,-0.38545 -0.07152,-0.0758 -0.123308,-0.14804 -0.20828,-0.22113 -0.01929,-0.0166 -0.04874,-0.0391 -0.07033,-0.0561 -0.06643,-0.053 -0.144783,-0.0806 -0.220452,-0.0832 -0.09729,-0.003 -0.1909445,0.0347 -0.2522341,0.11158 -0.1089593,0.13666 -0.074074,0.34554 0.077767,0.4666 0.00154,0.001 0.00318,0.002 0.00473,0.003 0.02087,0.0169 0.04642,0.0386 0.0656,0.0528 0.09017,0.0666 0.172535,0.10065 0.262377,0.1535 0.189281,0.11689 0.346196,0.21382 0.470659,0.33068 0.0486,0.0518 0.0571,0.1431 0.06357,0.18258 l 0.101435,0.0906 c -0.543009,0.81718 -0.794317,1.82657 -0.645802,2.85505 l -0.132542,0.0386 c -0.03493,0.0451 -0.08429,0.11609 -0.135923,0.13727 -0.1628398,0.0513 -0.3461068,0.0701 -0.5673598,0.0933 -0.1038761,0.009 -0.1935039,0.004 -0.3036286,0.0244 -0.024237,0.005 -0.05801,0.0134 -0.084529,0.0196 -9.282e-4,1.9e-4 -0.00178,4.9e-4 -0.00271,7.3e-4 -0.00144,2.5e-4 -0.00334,9.8e-4 -0.00473,0.001 -0.1865354,0.0451 -0.3063659,0.21652 -0.2677885,0.38545 0.038587,0.16897 0.2207906,0.27172 0.4084451,0.23127 0.00134,-2.4e-4 0.00332,-2.4e-4 0.00473,-7.3e-4 0.00213,-4.9e-4 0.00398,-10e-4 0.00609,-0.002 0.026159,-0.006 0.058941,-0.0121 0.081824,-0.0183 0.1082696,-0.029 0.1866824,-0.0716 0.284018,-0.10888 0.2094038,-0.0751 0.3828396,-0.13785 0.5518058,-0.16229 0.07057,-0.006 0.144922,0.0435 0.181907,0.0642 l 0.137951,-0.0237 c 0.317455,0.98423 0.982739,1.77974 1.825154,2.27891 l -0.05748,0.13795 c 0.02072,0.0536 0.04357,0.12604 0.02814,0.17894 -0.06143,0.1593 -0.166644,0.32743 -0.286457,0.51488 -0.05801,0.0866 -0.117384,0.1538 -0.169734,0.25291 -0.01253,0.0237 -0.02848,0.0601 -0.04057,0.0852 -0.08134,0.17403 -0.02168,0.37448 0.13457,0.4497 0.157227,0.0757 0.352387,-0.004 0.436847,-0.17853 1.3e-4,-2.4e-4 5.61e-4,-4.9e-4 6.84e-4,-7.3e-4 8.6e-5,-2e-4 -8.7e-5,-4.9e-4 0,-7.3e-4 0.01203,-0.0247 0.02907,-0.0572 0.03922,-0.0805 0.04484,-0.10273 0.05976,-0.19076 0.09129,-0.29011 0.08374,-0.21034 0.129743,-0.43103 0.245014,-0.56856 0.03156,-0.0377 0.08303,-0.0521 0.136381,-0.0664 l 0.07168,-0.12984 c 0.734405,0.2819 1.556454,0.35754 2.377636,0.17109 0.187333,-0.0425 0.368184,-0.0976 0.543016,-0.16365 0.02015,0.0357 0.05759,0.10443 0.06762,0.12172 0.05422,0.0176 0.1134,0.0268 0.16162,0.0981 0.08624,0.14734 0.14522,0.32165 0.217071,0.53219 0.03154,0.0993 0.04712,0.18739 0.09197,0.29011 0.01022,0.0234 0.02718,0.0564 0.03922,0.0811 0.08428,0.17496 0.28006,0.25506 0.437523,0.1792 0.156226,-0.0753 0.215956,-0.27568 0.13457,-0.44969 -0.01209,-0.0251 -0.02872,-0.0615 -0.04125,-0.0852 -0.05236,-0.0991 -0.111718,-0.16564 -0.169735,-0.25224 -0.119822,-0.18744 -0.2192,-0.34315 -0.280636,-0.50244 -0.02569,-0.0822 0.0043,-0.13325 0.02434,-0.18664 -0.01198,-0.0137 -0.03763,-0.0913 -0.05275,-0.12781 0.875477,-0.51693 1.521224,-1.34211 1.824478,-2.29513 0.04095,0.006 0.112126,0.019 0.135247,0.0237 0.0476,-0.0314 0.09136,-0.0724 0.177173,-0.0656 0.168968,0.0244 0.342398,0.0872 0.551806,0.16229 0.09734,0.0373 0.175747,0.0806 0.284018,0.10955 0.02288,0.006 0.05567,0.0119 0.08182,0.0176 0.0021,4.9e-4 0.004,0.001 0.0061,0.002 0.0014,2.5e-4 0.0034,2.5e-4 0.0047,7.4e-4 0.187666,0.0404 0.369902,-0.0623 0.408445,-0.23128 0.03853,-0.16893 -0.08124,-0.34043 -0.267788,-0.38545 -0.02713,-0.006 -0.06562,-0.0167 -0.09197,-0.0216 -0.110126,-0.0209 -0.199752,-0.0157 -0.303629,-0.0243 -0.221254,-0.0232 -0.404517,-0.042 -0.567359,-0.0933 -0.0664,-0.0258 -0.11363,-0.10476 -0.136601,-0.13728 l -0.127808,-0.0372 c 0.06627,-0.47941 0.0484,-0.97835 -0.06627,-1.47757 -0.115736,-0.50387 -0.320271,-0.96471 -0.593056,-1.37073 0.03279,-0.0298 0.0947,-0.0846 0.112255,-0.10075 0.0051,-0.0568 7.32e-4,-0.11633 0.05951,-0.17921 0.124456,-0.11686 0.281384,-0.21377 0.470659,-0.33067 0.08984,-0.0529 0.172889,-0.0869 0.263054,-0.15351 0.02039,-0.0151 0.04823,-0.0389 0.06965,-0.0561 0.151809,-0.1211 0.186761,-0.32996 0.07777,-0.4666 -0.108994,-0.13663 -0.320202,-0.1495 -0.472011,-0.0284 -0.02161,0.0171 -0.05093,0.0394 -0.07033,0.0561 -0.08497,0.0731 -0.137442,0.14529 -0.208956,0.22113 -0.156074,0.15853 -0.28508,0.29078 -0.426703,0.38613 -0.06137,0.0357 -0.151259,0.0234 -0.192052,0.0209 l -0.120369,0.0859 c -0.686378,-0.71975 -1.620897,-1.17991 -2.627162,-1.2693 -0.0028,-0.0422 -0.0065,-0.11839 -0.0074,-0.14133 -0.0412,-0.0394 -0.09096,-0.0731 -0.103464,-0.15824 -0.01376,-0.17017 0.0092,-0.35325 0.03584,-0.57412 0.0147,-0.10319 0.03911,-0.18892 0.04328,-0.30092 9.52e-4,-0.0255 -5.62e-4,-0.0624 -6.84e-4,-0.0899 -2.1e-5,-0.1942 -0.141696,-0.35166 -0.316477,-0.35164 z m -0.396273,2.45472 -0.094,1.66016 -0.0068,0.003 c -0.0063,0.14852 -0.128538,0.26711 -0.278608,0.26711 -0.06147,0 -0.118215,-0.0197 -0.164325,-0.0534 l -0.0027,0.001 -1.361257,-0.96498 c 0.418369,-0.4114 0.953497,-0.71541 1.570213,-0.85544 0.112655,-0.0256 0.22526,-0.0446 0.337441,-0.0582 z m 0.793222,0 c 0.72002,0.0886 1.3859,0.41459 1.896158,0.91427 l -1.352467,0.9589 -0.0047,-0.002 c -0.120044,0.0877 -0.289178,0.0659 -0.382748,-0.0514 -0.03833,-0.0481 -0.05844,-0.10457 -0.06086,-0.16162 l -0.0013,-7.3e-4 z m -3.194526,1.5337 1.242917,1.11173 -0.0013,0.007 c 0.112187,0.0975 0.128731,0.26677 0.03516,0.38411 -0.03833,0.0481 -0.08963,0.0803 -0.144713,0.0953 l -0.0013,0.005 -1.593205,0.45983 c -0.08109,-0.74147 0.09367,-1.46225 0.462543,-2.06318 z m 5.586363,7.3e-4 c 0.184673,0.29933 0.324517,0.63365 0.407769,0.99609 0.08225,0.3581 0.102895,0.71556 0.06897,1.06102 l -1.60132,-0.46119 -0.0013,-0.007 c -0.143394,-0.0392 -0.231519,-0.18505 -0.198137,-0.33135 0.01368,-0.0599 0.04549,-0.11064 0.08859,-0.1481 l -6.84e-4,-0.003 1.236155,-1.10632 z m -3.043726,1.19694 h 0.509204 l 0.316477,0.39559 -0.113607,0.49365 -0.457134,0.21978 -0.458486,-0.22045 -0.113607,-0.49365 z m 1.632427,1.35382 c 0.02164,-9.8e-4 0.04318,9.7e-4 0.06424,0.005 l 0.0027,-0.003 1.647981,0.27861 c -0.241183,0.6776 -0.702695,1.26462 -1.319331,1.65745 l -0.639717,-1.54519 0.002,-0.003 c -0.05876,-0.13654 4.3e-5,-0.29666 0.135247,-0.36178 0.03461,-0.0167 0.07078,-0.0259 0.106845,-0.0277 z m -2.767823,0.007 c 0.125763,0.002 0.238567,0.0891 0.267789,0.21707 0.01368,0.0599 0.007,0.11932 -0.01555,0.17177 l 0.0047,0.006 -0.632954,1.52964 c -0.591778,-0.37974 -1.063131,-0.94833 -1.315274,-1.64595 l 1.63378,-0.27726 0.0027,0.003 c 0.01827,-0.003 0.03681,-0.005 0.05477,-0.005 z m 1.380192,0.67015 c 0.04381,-0.002 0.08826,0.007 0.130513,0.0277 0.05539,0.0267 0.09817,0.0687 0.125104,0.11901 h 0.0061 l 0.805394,1.45526 c -0.104525,0.035 -0.211982,0.065 -0.321887,0.0899 -0.615957,0.13985 -1.229957,0.0975 -1.785932,-0.092 l 0.803365,-1.45255 h 0.0013 c 0.04821,-0.0901 0.139628,-0.14388 0.236006,-0.14742 z"
         style="fill:#ffffff;fill-opacity:1;stroke:#ffffff;stroke-width:0;stroke-miterlimit:4;stroke-dasharray:none;stroke-opacity:1"
         sodipodi:nodetypes="ccccccccsccccscssccsccccccccscccsccccccccccccccscccscsccsccccscscsccccccccscccscsccccsccccscscscccccccccccccccscccsccccccccccccscccccscccccccccccccccccccccccscccscccccccccscccscccc"
         inkscape:export-filename="./path3059.png"
         inkscape:export-xdpi="250.55"
         inkscape:export-ydpi="250.55" />
    </g>
  </g>
</svg>
